/* XPM */
static char *c3a53d364cc0b6bdbfaa2065bef97766[] = {
/* columns rows colors chars-per-pixel */
"50 50 93 2 ",
"   c gray22",
".  c #393939",
"X  c #393A39",
"o  c #3A3A3A",
"O  c #3A3D3A",
"+  c #3B3E3B",
"@  c #3B3F3B",
"#  c #3C423C",
"$  c #3C433C",
"%  c #3D433D",
"&  c #3D443D",
"*  c #3D453D",
"=  c #3D463D",
"-  c #3D453E",
";  c #3E463E",
":  c #3E493F",
">  c #3F4C40",
",  c #404D40",
"<  c #414F41",
"1  c #415041",
"2  c #415141",
"3  c #425242",
"4  c #425342",
"5  c #445744",
"6  c #455D45",
"7  c #465D46",
"8  c #465E46",
"9  c #466047",
"0  c #476047",
"q  c #476147",
"w  c #476247",
"e  c #486649",
"r  c #496649",
"t  c #4B6C4B",
"y  c #4D724D",
"u  c #4D734E",
"i  c #4E754E",
"p  c #4F7850",
"a  c #528052",
"s  c #528253",
"d  c #538454",
"f  c #538554",
"g  c #558855",
"h  c #589158",
"j  c #5A975B",
"k  c #5A995B",
"l  c #5B9B5C",
"z  c #5B9C5C",
"x  c #5D9F5D",
"c  c #5DA05E",
"v  c #5DA25E",
"b  c #5EA45F",
"n  c #5EA55F",
"m  c #5FA760",
"M  c #60A860",
"N  c #60A960",
"B  c #60A961",
"V  c #61AB62",
"C  c #61AE62",
"Z  c #62AE62",
"A  c #62B063",
"S  c #63B163",
"D  c #63B364",
"F  c #64B464",
"G  c #64B465",
"H  c #64B565",
"J  c #64B665",
"K  c #65B766",
"L  c #65B966",
"P  c #66BA67",
"I  c #66BB67",
"U  c #66BC67",
"Y  c #67BC67",
"T  c #67BD68",
"R  c #67BE68",
"E  c #67BF68",
"W  c #68BF69",
"Q  c #68C068",
"!  c #68C269",
"~  c #69C26A",
"^  c #69C36A",
"/  c #69C46A",
"(  c #69C56A",
")  c #6AC56B",
"_  c #6AC66B",
"`  c #6AC76B",
"'  c #6AC86B",
"]  c #6BC86C",
"[  c #6BC96C",
"{  c #6BCA6C",
"}  c #6CCB6D",
"|  c #6CCC6D",
" . c None",
/* pixels */
" . . . . . . . . . . . . . . . . . . . .. . . . . . . . . .  . . . . . . . . . . . . . . . . . . . .",
" . . . . . . . . . . . . . . . . .. . . . . . . . . . . . . . . .  . . . . . . . . . . . . . . . . .",
" . . . . . . . . . . . . . .. . . . . . . . . . . . . . . . . . . . . .  . . . . . . . . . . . . . .",
" . . . . . . . . . . . .. . . . . . . . . . . . . . . . . . . . . . . . . .  . . . . . . . . . . . .",
" . . . . . . . . . . .. . . . . . . . . . . . . . . . . . . . . . . . . . . .  . . . . . . . . . . .",
" . . . . . . . . .. . . . . . . . . . . . . . . . . . . . . . . . . . . . . . . .  . . . . . . . . .",
" . . . . . . . .. . . . . . . # 1 5 7 0 0 0 0 0 r r q 0 0 q q 7 5 < # . . . . . . .  . . . . . . . .",
" . . . . . . .. . . . . . > c { | | | | | | | | | } | | } | | | } } } k > . . . . . .  . . . . . . .",
" . . . . . .. . . . . . & I | | | | | | | | | | | | | | | | | | | | | | J @ . . . . . .  . . . . . .",
" . . . . .. . . . . . . a | | | | | | | | | | | | | | | | | | | | | | | | y . . . . . . .  . . . . .",
" . . . . .. . . . . . . m | | | | | | | | | | | | | | | | | | | | | | | | k . . . . . . .  . . . . .",
" . . . .. . . . . . . . J | | | | | | | | | | | | | | | | | | | | | | | | V . . . . . . . .  . . . .",
" . . .. . . . . . . . . I | | | | | | | | | | | | | | | | | | | | | | | | V . . . . . . . . .  . . .",
" . . .. . . . . . . . . U | | | | | | | | | | | | | | } | | | | | | | | | Z . . . . . . . . .  . . .",
" . .. . . . . . . . . . T | | | | | | | Q 5 5 5 5 5 5 5 5 W | | | | | | | D . . . . . . . . . .  . .",
" . .. . . . . . . . . . T | | | | | | | T . . . . . . . . T | | | | | | | Z . . . . . . . . . .  . .",
" . .. . . . . . . . . . ! | | | | | | | ! . . . . . . . . I | | | | | | | D . . . . . . . . . .  . .",
" .o . . . . . . . . . . ! | | | | | | | Q . . . . . . . . T | | | | | | | D . . . . . . . . . . .  .",
" .. . . . . . . . . . . Q | | | | | | | Q . . . . . . . . I | | | | | | | J . . . . . . . . . . .  .",
" .. . . . . . . . . . . ) | | | | | | | / . . . . . . . . T | | | | | | | J . . . . . . . . . . .  .",
". . . . . . . . . . . . ) | | | | | | | { 9 . . . . . . . c Z Z Z Z Z C Z c . . . . . . . . . . . . ",
". . . . . . . . . . . . ) | | | | | | | | } k & . . . . . 0 0 0 0 0 0 0 0 0 0 0 0 1 . . . . . . . . ",
". . . . . . . . . . . . ) | | | | | | | | | | Q i . . . . g g g g g g g g g g g g e . . . . . . . . ",
". . . . . . . . . . . . ) | | | | | | | | | | | | N 1 . . n n n n n n n n n n n n p . . . . . . . . ",
". . . . . . . . o . . . T ~ ~ ~ ) Q Q Q / Q / | | | { f & $ $ . . . . . . . . . . . . . . . . . . . ",
". . . . . . . . # # $ $ $ $ & # $ & & & & . @ a { | | | | | | | | | | | | R . . . . . . . . . . . . ",
". . . . . . . . u k k j k k z z z k k z z . . . 1 N | | | | | | | | | | | R . . . . . . . . . . . . ",
". . . . . . . . t h h h h h h h h h h h h . . . . . y Q | | | | | | | | | R . . . . . . . . . . . . ",
". . . . . . . . > > > > > > > > > > > > , . . . . . . & k { | | | | | | | R . . . . . . . . . . . . ",
". . . . . . . . . .     N C C A A A C Z c . . . . . . . . T | | | | | | | W . . . . . . . . . . . . ",
" .. . . . . . . . . X X ) | | | | | { | I . . . . . . . . U | | | | | | | R . . . . . . . . . . .  .",
" .. . . . . . .   X X X ) | | | | | | | W . . . . . . . . T | | | | | | | R . . . . . . . . . . .  .",
" .. . . . . . . . . . . ) | | | | | | | W . . . . . . . . P | | | | | | | R . . . . . . . . . . .  .",
" . .. . . . . . . . . . Q | | | | | | | Y . . . . . . . . P | | | | | | | I . . . . . . . . . .  . .",
" . .. . . . . . . . . . Q | | | | | | | Y . . . . . . . . W | | | | | | } I . . . . . . . . . .  . .",
" . .. . . . . . . . . . T | | | | | | | W 5 5 5 5 5 5 5 5 W | | | | | | { I . . . . . . . . .    . .",
" . . .. . . . . . . . . T | | | | | | | | | | | } } | | | | | | | | | | | I . . . . . . . . .  . . .",
" . . .. . . . . . . . . J | | | | | | | | | | | | } | | | | | | | | | | } J . . . . . . . . .  . . .",
" . . . .. . . . . . . . D | | | | | | | | | | | | | | | | | | | | | | | } D . . . . . . . .  . . . .",
" . . . . .. . . . . . . N | | | | | | | | | | | | | | | | | | | | | | | } M . . . . . . .  . . . . .",
" . . . . .. . . . . . . f { { | | | | | | | | | | | | | | | | | | | | | | f . . . . . . .  . . . . .",
" . . . . . .. . . . . . > I | | | | | | | | | | | | | | | | | | | | | | W # . . . . . .  . . . . . .",
" . . . . . . .. . . . . . > m { | | | | | | | } | | } | | | | | | | } c > . . . . . .  . . . . . . .",
" . . . . . . . .. . . . . . . > 1 5 7 q q q q q q q 0 q q q q 7 5 4 & . . . . . . .  . . . . . . . .",
" . . . . . . . . .. . . . . . . . . . . . . . . . . . . . . . . . . . . . . . . .  . . . . . . . . .",
" . . . . . . . . . . .. . . . . . . . . . . . . . . . . . . . . . . . . . . .  . . . . . . . . . . .",
" . . . . . . . . . . . .. . . . . . . . . . . . . . . . . . . . . . . . . .  . . . . . . . . . . . .",
" . . . . . . . . . . . . . .. . . . . . . . . . . . . . . . . . . . . .  . . . . . . . . . . . . . .",
" . . . . . . . . . . . . . . . . .. . . . . . . . . . . . . . . .  . . . . . . . . . . . . . . . . .",
" . . . . . . . . . . . . . . . . . . . .. . . . . . . . . .  . . . . . . . . . . . . . . . . . . . ."
};
